<?xml version="1.0" encoding="utf-8"?>
<!-- Generator: Adobe Illustrator 19.2.0, SVG Export Plug-In . SVG Version: 6.00 Build 0)  -->
<svg version="1.1" id="Layer_1" xmlns="http://www.w3.org/2000/svg" xmlns:xlink="http://www.w3.org/1999/xlink" x="0px" y="0px"
	 viewBox="0 0 100 100" style="enable-background:new 0 0 100 100;" xml:space="preserve">
<style type="text/css">
	.st0{fill:#01B3E3;}
</style>
<path class="st0" d="M73.8,13.1L59.1,27.8v37.4c0,1.8-0.2,3.4-0.5,5.1c-1.1,0.2-2.2,0.3-3.4,0.3c-2.9,0-5.5-0.5-7.8-1.5
	c-2.3-1-4.2-2.4-5.8-4.2s-2.8-3.9-3.6-6.4c-0.8-2.4-1.3-5.1-1.3-7.9V13.1h-4.4L17.6,27.8v37.4c0,3.3,0.5,6.5,1.6,9.3
	c1.1,2.9,2.6,5.4,4.6,7.6c2,2.2,4.4,3.8,7.2,5.1c2.8,1.2,6,1.8,9.6,1.8c3.5,0,6.7-0.6,9.6-1.8c2.8-1.2,5.2-2.9,7.2-5.1L72,67.5
	c2-2.2,3.5-4.7,4.6-7.6c1.1-2.9,1.6-6,1.6-9.3V13.1H73.8z M48.4,83.7c-2.3,1-4.9,1.5-7.8,1.5s-5.5-0.5-7.8-1.5
	c-2.3-1-4.2-2.4-5.8-4.2s-2.8-3.9-3.6-6.4C22.4,70.6,22,68,22,65.2V27.8l10.2-10.2v33c0,3.3,0.5,6.5,1.6,9.3
	c1.1,2.9,2.6,5.4,4.6,7.6c2,2.2,4.4,3.8,7.2,5.1c2.8,1.2,6,1.8,9.6,1.8c0.7,0,1.5,0,2.2-0.1c-0.8,1.9-1.9,3.7-3.2,5.1
	C52.6,81.2,50.6,82.7,48.4,83.7z M72.5,58.5c-0.8,2.4-2.1,4.6-3.7,6.4c-1.5,1.7-3.4,3.1-5.6,4.1c0.2-1.2,0.3-2.4,0.3-3.7V27.8
	l10.3-10.3v33.1C73.8,53.4,73.3,56,72.5,58.5z"/>
</svg>
